# xmcd
# 
# Track frame offsets:
#     150
#     15160
#     28260
#     42451
#     56979
#     67784
#     84290
#     98609
#     118466
#     130594
#     144264
#     157358
#     175665
# 
# Disc length: 2604
# 
# Revision: 0
# Processed by: cddbd v1.5.2PL0 Copyright (c) Steve Scherf et al.
# Submitted via: fre:ac v1.0.31
# 
DISCID=a80a2a0d
DTITLE=The Mustangs - Nothing Stays The Same
DYEAR=2008
DGENRE=Blues
TTITLE0=Put Your Money On Me
TTITLE1=Look The Other Way
TTITLE2=What Are You Trying To Say?
TTITLE3=Looking Down The Well
TTITLE4=Taking My Water Upstairs
TTITLE5=Keep On Loving
TTITLE6=Long Distance Line
TTITLE7=Go Ahead
TTITLE8=Out Of Line
TTITLE9=Nights Like Those
TTITLE10=So Many Roads
TTITLE11=Good Luck Girl
TTITLE12=Nothing Stays The Same
EXTD=
EXTT0=
EXTT1=
EXTT2=
EXTT3=
EXTT4=
EXTT5=
EXTT6=
EXTT7=
EXTT8=
EXTT9=
EXTT10=
EXTT11=
EXTT12=
PLAYORDER=
